<?xml version="1.0" standalone="no"?>
<!DOCTYPE svg PUBLIC "-//W3C//DTD SVG 20010904//EN"
 "http://www.w3.org/TR/2001/REC-SVG-20010904/DTD/svg10.dtd">
<svg version="1.0" xmlns="http://www.w3.org/2000/svg"
 width="1920.000000pt" height="286.000000pt" viewBox="0 0 1920.000000 286.000000"
 preserveAspectRatio="xMidYMid meet">

<g transform="translate(0.000000,286.000000) scale(0.100000,-0.100000)"
fill="#222627" stroke="none">
<path d="M0 2450 c0 -225 2 -410 4 -410 2 0 21 28 42 62 40 65 100 128 122
128 17 0 15 -11 -17 -92 -15 -40 -38 -102 -50 -138 -11 -36 -39 -89 -61 -118
-52 -68 -54 -100 -5 -52 l36 35 -8 -100 c-12 -154 -11 -190 7 -190 11 0 17 16
23 55 30 215 82 414 146 563 l20 47 193 0 c231 0 358 -9 358 -24 -1 -6 -21
-38 -45 -71 -24 -33 -53 -77 -65 -97 -18 -33 -122 -128 -223 -202 -21 -15 -36
-31 -33 -34 8 -8 164 100 233 162 32 28 65 57 74 64 10 7 -9 -52 -48 -155 -66
-172 -84 -233 -66 -233 17 0 29 21 56 95 27 77 97 228 170 373 58 113 74 118
99 33 11 -36 15 -73 12 -93 -8 -38 -62 -158 -94 -205 -12 -18 -18 -33 -12 -33
12 0 83 102 116 169 15 29 31 50 35 45 4 -5 22 -28 39 -51 l32 -41 -59 -36
c-32 -20 -63 -36 -69 -36 -5 0 -15 -7 -22 -15 -21 -25 2 -17 82 29 67 38 79
42 90 29 10 -13 4 -23 -42 -65 -43 -39 -48 -46 -22 -31 18 10 44 30 59 45 21
22 29 25 44 15 26 -16 48 5 30 27 -11 13 -5 25 32 73 24 32 56 81 70 110 l27
52 37 -11 c21 -6 41 -15 45 -22 4 -6 8 -67 8 -136 0 -108 -4 -133 -24 -183
-37 -89 -101 -196 -161 -267 -73 -85 -70 -101 4 -24 48 51 69 65 114 78 31 9
63 19 71 22 10 4 15 -5 18 -35 3 -39 2 -42 -46 -71 -62 -39 -54 -51 10 -14
l47 28 -7 -43 c-8 -50 -33 -104 -88 -184 -22 -33 -37 -61 -35 -63 8 -8 85 88
119 148 18 32 35 58 38 58 3 0 21 -30 40 -66 49 -92 84 -133 101 -116 11 10
11 16 -1 35 -38 60 -100 222 -100 261 0 6 37 39 83 73 108 81 276 240 368 350
40 48 73 89 74 89 0 1 10 4 22 8 20 6 21 5 12 -36 -35 -156 -249 -693 -317
-793 -76 -113 -214 -267 -321 -359 -55 -47 -103 -91 -106 -96 -30 -48 164 103
303 238 51 49 90 82 87 73 -20 -48 -87 -246 -106 -310 -28 -96 -94 -193 -221
-326 -55 -58 -95 -105 -90 -105 19 0 153 126 240 226 24 27 41 41 38 31 -3
-10 -9 -90 -13 -178 -5 -143 -5 -159 10 -159 20 0 23 13 37 145 22 199 76 405
170 655 73 191 185 461 193 463 12 4 97 -138 113 -188 25 -79 29 -201 10 -267
-30 -105 -142 -224 -267 -285 -30 -14 -49 -28 -42 -30 16 -6 84 30 176 93 43
29 75 48 71 41 -24 -40 -99 -129 -131 -155 -21 -17 -32 -31 -24 -32 21 0 153
134 189 193 50 83 82 187 84 273 0 41 2 74 4 74 13 0 62 -247 77 -390 12 -109
12 -127 -4 -190 -21 -81 -85 -210 -133 -266 -39 -47 -60 -84 -47 -84 13 0 128
146 173 221 l37 61 6 -39 c4 -21 14 -69 22 -108 25 -123 26 -141 8 -199 -10
-31 -35 -86 -57 -122 -21 -37 -37 -69 -34 -71 8 -8 67 73 102 141 l37 69 22
-39 c61 -104 110 -174 121 -174 24 0 20 24 -13 79 -74 122 -123 291 -147 506
-22 192 -23 235 -5 246 18 10 158 187 218 277 23 35 61 101 83 147 l40 85 80
-133 c155 -259 211 -322 254 -287 22 19 17 46 -20 97 -152 213 -281 649 -298
1013 l-3 65 195 3 c402 6 650 -30 1195 -177 l110 -30 220 -223 c415 -422 649
-658 652 -658 1 0 283 163 625 363 343 200 633 369 645 376 20 10 54 -4 302
-129 l281 -140 -6 -30 c-7 -35 5 -39 30 -11 18 20 19 19 82 -12 35 -17 64 -34
64 -37 0 -6 -207 -84 -350 -130 -249 -81 -483 -136 -630 -146 -105 -7 -141
-14 -135 -24 14 -23 200 -20 364 6 l44 7 -47 -57 c-45 -56 -67 -92 -86 -141
-16 -43 7 -28 46 30 76 115 189 183 423 254 73 23 137 41 141 41 5 0 -12 -30
-36 -67 -44 -68 -104 -198 -104 -228 0 -9 6 -15 12 -13 13 5 16 10 67 118 65
139 172 238 308 284 l75 25 56 -28 c32 -16 82 -36 112 -46 30 -10 56 -19 58
-20 2 -2 -6 -31 -18 -65 -13 -38 -20 -81 -18 -109 l3 -46 34 95 c47 132 56
139 64 48 7 -79 22 -135 43 -157 10 -11 11 -7 4 25 -14 59 -12 197 3 216 18
24 81 38 169 38 99 0 230 -19 222 -32 -10 -16 -273 -209 -418 -307 -235 -158
-387 -246 -560 -320 -115 -50 -141 -71 -86 -71 50 0 199 54 357 130 80 39 147
70 149 70 1 0 -11 -29 -27 -65 -35 -79 -59 -173 -59 -240 0 -64 15 -49 36 36
9 35 34 102 56 149 56 116 175 234 398 392 90 64 166 116 167 114 2 -2 -1 -16
-8 -32 -35 -92 -72 -375 -55 -420 12 -32 26 0 46 112 29 165 97 354 146 411
l19 22 125 -43 c69 -23 179 -66 246 -94 l120 -52 169 0 c225 0 399 14 703 56
251 35 494 63 501 58 2 -2 -13 -17 -34 -35 -61 -54 -165 -212 -150 -227 4 -4
19 9 34 28 82 109 175 187 267 222 42 17 121 13 262 -13 l63 -11 -23 -26 c-44
-47 -226 -209 -289 -256 -35 -27 -68 -55 -73 -63 -13 -24 8 -37 35 -22 29 14
222 161 262 197 32 30 35 17 7 -35 -21 -40 -27 -78 -9 -68 5 4 34 44 64 88 29
45 63 93 75 107 l21 25 -8 -50 c-10 -63 -10 -218 0 -267 13 -65 27 -42 27 45
1 79 19 209 37 254 8 22 8 22 109 -22 55 -25 131 -61 169 -79 50 -24 75 -31
87 -25 9 5 43 15 76 23 l60 14 -5 -74 c-4 -51 -2 -74 5 -74 11 0 24 40 37 113
6 38 16 43 63 31 18 -5 22 -14 23 -48 1 -67 15 -137 30 -147 27 -16 33 9 20
92 -7 44 -10 83 -8 86 3 2 28 -6 57 -18 l52 -22 86 25 c48 15 133 40 190 58
57 17 107 30 113 28 14 -5 -371 -398 -495 -504 -129 -112 -243 -190 -369 -253
-50 -26 -89 -50 -88 -56 6 -31 173 33 311 120 22 14 40 24 40 23 0 -2 -7 -28
-15 -58 -16 -60 -20 -215 -6 -224 4 -3 13 32 19 77 14 105 43 184 91 245 34
42 252 252 263 252 2 0 2 -63 0 -139 -5 -144 4 -247 17 -221 5 8 13 66 20 129
13 127 32 216 62 297 23 60 121 184 230 291 61 59 68 63 137 76 66 13 72 13
66 -2 -47 -113 -62 -228 -41 -327 16 -75 44 -150 52 -142 3 3 -1 51 -10 106
-8 56 -15 119 -15 139 0 36 2 33 44 -52 43 -88 94 -162 122 -178 7 -4 -15 47
-49 113 l-62 120 0 93 c0 124 13 150 80 159 28 3 109 6 180 7 l130 0 -68 -64
c-37 -36 -91 -78 -120 -95 -29 -16 -64 -41 -77 -55 -22 -23 -22 -25 -4 -25 28
0 174 90 276 170 49 39 92 69 95 67 3 -3 0 -36 -5 -74 -6 -37 -16 -129 -22
-203 -6 -74 -16 -153 -22 -175 -17 -68 -74 -149 -164 -234 -47 -45 -84 -86
-82 -91 6 -18 131 75 200 148 l67 71 6 -47 c16 -116 56 -350 66 -379 11 -35
39 -45 39 -15 0 9 -7 57 -15 106 -20 123 -29 323 -20 441 l8 100 17 -75 c37
-167 133 -400 164 -400 11 0 8 16 -15 65 -46 101 -76 200 -103 335 -31 158
-40 262 -31 346 l7 66 44 -6 c93 -12 232 -82 311 -155 l33 -30 -19 -44 c-34
-79 -89 -260 -105 -346 -27 -142 -15 -211 13 -76 43 204 168 501 240 570 l41
39 0 -64 c0 -36 -7 -114 -15 -175 -19 -141 -19 -147 2 -143 21 4 28 29 54 203
11 77 23 146 25 153 2 8 24 -8 55 -42 54 -59 138 -126 159 -126 7 0 -24 38
-68 84 -44 46 -93 108 -107 137 l-27 52 54 53 53 54 66 -58 c36 -31 93 -81
127 -110 l60 -52 72 97 72 98 -7 -49 c-10 -74 -41 -144 -91 -209 -49 -63 -53
-72 -25 -58 28 15 85 97 131 187 l41 79 -5 -100 c-2 -55 -11 -119 -19 -143
-22 -59 -4 -53 22 8 37 87 45 265 15 343 -7 19 41 97 60 97 6 0 45 -33 85 -74
l74 -74 -81 -164 c-119 -241 -198 -475 -217 -645 -10 -88 8 -79 29 15 52 220
211 585 306 702 l20 25 47 -50 c91 -99 143 -264 143 -459 0 -135 14 -147 30
-25 11 90 12 199 1 257 -5 23 -7 42 -6 42 1 0 30 -28 66 -61 35 -34 100 -95
145 -135 44 -41 90 -93 102 -117 25 -51 52 -149 52 -193 0 -47 11 -94 21 -88
14 8 10 152 -5 219 -8 33 -14 61 -13 62 2 1 32 -15 67 -37 97 -57 232 -121
259 -123 50 -4 30 23 -48 63 -45 23 -81 45 -81 49 0 4 97 103 216 220 193 190
217 211 232 199 9 -8 36 -31 60 -51 23 -20 49 -37 57 -37 29 0 14 31 -41 83
l-56 52 99 97 c148 144 170 163 176 141 4 -16 5 -16 11 2 4 11 11 27 15 35 8
15 143 121 240 187 l54 38 54 -60 c66 -72 114 -150 143 -230 25 -66 50 -103
50 -72 0 10 -9 45 -20 78 l-21 60 26 31 c14 17 32 43 40 59 l15 28 52 -18 c29
-10 52 -23 52 -27 -1 -5 -5 -28 -9 -51 -9 -57 9 -56 25 2 7 25 18 45 25 45 38
0 132 -100 181 -195 27 -51 44 -69 44 -45 0 22 -62 147 -90 182 -17 20 -30 38
-30 40 0 2 71 -2 158 -9 161 -13 192 -11 192 11 0 8 -45 17 -137 29 -76 9
-178 27 -228 39 l-89 23 -1 90 c-1 50 -5 122 -9 160 l-7 70 110 57 110 57 186
-187 c180 -181 188 -190 235 -287 65 -132 99 -238 111 -343 6 -48 13 -106 15
-129 9 -79 24 -44 24 55 0 95 -20 254 -40 321 -5 19 -7 37 -5 40 3 3 36 -24
73 -60 37 -36 103 -96 147 -133 131 -110 155 -137 196 -221 34 -69 55 -136 83
-267 4 -16 11 -28 17 -28 22 0 -12 200 -50 298 l-20 51 193 -99 c106 -55 200
-100 209 -100 10 0 17 8 17 19 0 14 -28 34 -107 76 -274 145 -542 361 -875
705 l-170 175 47 3 c154 10 382 -35 523 -104 119 -58 171 -114 198 -217 19
-71 17 -118 -5 -182 -11 -30 -15 -55 -10 -55 25 0 58 124 60 224 l1 51 35 -73
c20 -40 38 -93 41 -117 2 -25 9 -45 13 -45 16 0 10 76 -11 143 -39 125 -148
238 -305 313 -38 19 -64 34 -57 34 47 0 422 -114 598 -181 160 -62 283 -179
354 -336 30 -65 56 -86 44 -35 -8 34 -85 196 -115 240 l-22 33 29 -7 c16 -3
34 -12 41 -18 6 -6 80 -119 163 -251 84 -132 154 -241 155 -243 1 -1 100 85
220 193 119 107 224 195 231 195 8 0 14 6 14 14 0 7 47 55 105 106 l105 92 0
634 0 634 -9600 0 -9600 0 0 -410z m1145 -275 c136 -26 132 -23 94 -75 -37
-53 -100 -120 -111 -120 -10 0 -84 153 -94 193 -5 20 -3 26 7 23 8 -3 55 -12
104 -21z m1315 -55 c0 -23 -62 -130 -132 -229 -40 -57 -84 -119 -97 -137 -13
-19 -22 -37 -19 -40 12 -11 197 201 271 310 31 47 31 47 46 -107 6 -65 23
-178 36 -252 31 -168 31 -198 -1 -293 -40 -122 -103 -235 -246 -444 l-25 -36
-27 186 c-15 103 -36 220 -47 260 -33 124 -97 249 -170 327 l-27 30 70 190
c38 104 74 193 79 196 6 3 65 14 132 23 67 10 127 20 132 21 19 6 25 5 25 -5z
m-795 -74 c159 -41 171 -43 217 -31 26 7 48 12 48 10 0 -2 -27 -37 -60 -79
-66 -83 -124 -130 -280 -223 l-105 -64 -7 48 c-3 27 -7 123 -7 216 -1 133 2
167 12 167 8 0 89 -20 182 -44z m15590 33 c113 -9 297 -44 357 -68 15 -5 44
-36 66 -68 44 -66 134 -224 130 -229 -2 -1 -105 31 -228 72 -402 133 -555 165
-818 169 -90 1 -166 5 -169 9 -12 11 124 66 214 86 76 16 195 31 308 39 11 0
74 -4 140 -10z m-16075 -109 c-12 -17 -26 -27 -32 -24 -7 5 -1 16 16 31 37 31
42 29 16 -7z m16680 -53 l105 -44 88 -138 c48 -76 86 -140 83 -143 -3 -2 -71
20 -150 49 -134 50 -146 56 -146 79 0 14 -21 72 -45 130 -25 58 -45 106 -45
107 0 5 2 4 110 -40z m-1670 -164 c0 -22 -32 -181 -39 -192 -6 -9 -30 -3 -100
25 -68 27 -89 40 -81 48 13 13 202 124 213 125 4 1 7 -2 7 -6z m-14780 -88 c0
-42 -1 -43 -47 -59 -66 -23 -68 -21 -30 27 19 23 40 52 46 65 17 32 31 18 31
-33z m195 -1 c-33 -30 -72 -63 -86 -74 l-27 -20 -4 31 c-5 29 -2 32 81 74 47
24 88 44 91 44 3 0 -22 -24 -55 -55z m14648 9 c15 -98 19 -163 10 -163 -6 0
-25 5 -42 11 -26 9 -32 16 -27 33 3 11 13 51 23 89 10 37 20 67 24 67 4 0 9
-17 12 -37z m-185 -169 c60 -21 63 -33 26 -88 l-26 -38 -19 43 c-11 23 -29 59
-41 78 -15 24 -18 33 -7 29 8 -3 38 -14 67 -24z"/>
</g>
</svg>
