<svg width="127" height="51" viewBox="0 0 127 51" fill="none" xmlns="http://www.w3.org/2000/svg">
<path d="M126.043 50.7942C125.737 50.7942 125.44 50.6604 125.253 50.4086L114.22 35.1973C112.81 34.5678 105.328 31.2234 101.472 29.6023C101.302 29.5315 101.158 29.4134 101.056 29.2718C98.0833 24.8808 91.9427 16.3898 90.8131 14.8239C88.9192 14.2415 78.8038 11.1489 73.5975 9.70886C73.5125 9.68525 73.4361 9.65377 73.3597 9.60656C69.5377 7.35595 61.9618 3.16165 59.7791 1.95765C56.9424 4.33416 43.2259 15.8705 36.6352 22.0478C36.4059 22.2603 36.0831 22.3469 35.7689 22.2918C33.7985 21.9141 29.9511 21.2216 28.5327 20.9619C26.7831 22.8741 19.0968 31.3178 15.3513 35.7403C15.1305 36 14.7738 36.1259 14.4256 36.0629C12.4466 35.701 8.61622 35.0557 6.97704 34.7724L1.83018 47.2137C1.64333 47.6701 1.09977 47.8904 0.607163 47.7173C0.114559 47.5442 -0.12325 47.0327 0.0636002 46.5841L5.49074 33.4661C5.65211 33.0726 6.09375 32.8444 6.54389 32.9153C6.59485 32.9231 11.4869 33.7415 14.2217 34.2373C18.6042 29.1065 27.3607 19.5375 27.4456 19.4352C27.6664 19.1913 28.0146 19.0811 28.3459 19.1441C28.3968 19.1519 33.0426 19.9861 35.65 20.4818C43.1749 13.4704 58.8703 0.360197 59.0317 0.22642C59.3374 -0.033265 59.7961 -0.0726112 60.1528 0.12412C60.2462 0.179204 69.7331 5.40438 74.2769 8.06418C80.0778 9.66951 91.6115 13.2185 91.7304 13.25C91.9257 13.313 92.1041 13.431 92.2145 13.5963C92.2825 13.6907 99.1789 23.1967 102.517 28.115C106.874 29.9485 115.197 33.6786 115.282 33.7179C115.435 33.7887 115.562 33.891 115.656 34.0169L126.833 49.4249C127.121 49.8263 127.011 50.3692 126.578 50.6447C126.417 50.747 126.23 50.7942 126.051 50.7942H126.043Z" fill="#F1A21F"/>
<path d="M59.9405 4.01154C59.9405 4.01154 70.5144 10.1968 70.5144 10.0315L88.8852 15.8784L99.4592 30.1453L112.632 36.8499L122.832 49.9128C101.956 47.5048 90.0572 46.6392 68.6544 45.8523C68.6544 45.8523 62.0383 30.767 60.3396 25.589C60.0763 24.7863 60.3906 23.9365 61.087 23.4092C62.7602 22.1344 62.8536 19.3644 62.5648 17.8771C62.2166 16.1066 60.3991 8.01698 60.1613 7.02546C59.932 6.03393 59.7451 4.01941 59.932 4.01941L59.9405 4.01154Z" fill="#F1A21F"/>
<path d="M27.9975 24.1096C27.9975 24.1096 32.9321 26.9976 32.9321 26.9189L41.4932 29.6416L46.4277 36.2911L52.5683 39.4152L57.8255 45.8287C47.9225 45.2227 39.6077 45.7421 30.5964 46.8989C30.5964 46.8989 28.9827 36.5823 28.1844 34.1664C28.0655 33.7966 28.2099 33.3953 28.5326 33.1513C29.314 32.5611 29.3564 31.2627 29.2205 30.5702C29.0592 29.7439 28.2099 25.9746 28.0994 25.5103C27.989 25.046 27.9041 24.1096 27.989 24.1096H27.9975Z" fill="#F1A21F"/>
</svg>
