<svg width="283" height="114" viewBox="0 0 283 114" fill="none" xmlns="http://www.w3.org/2000/svg">
<g clip-path="url(#clip0_71_1163)">
<path d="M41.0711 2.09618C40.3917 1.61799 39.9859 1.29844 39.1719 1.45708C39.0262 1.51147 38.8715 1.5568 38.719 1.60439C38.5777 1.76304 38.4298 1.91261 38.2728 2.04632C38.2145 2.09618 38.1584 2.13471 38.1001 2.1755C37.8468 2.63783 37.5732 3.08203 37.2817 3.50356C37.1853 3.68713 37.0889 3.87297 36.9813 4.05201C36.9566 4.0928 36.9297 4.12906 36.9028 4.16533C36.849 4.28317 36.7884 4.39876 36.7369 4.51887C36.5866 5.03559 36.4274 5.40726 36.1853 5.81067C36.0037 6.32965 35.8893 6.84637 35.7772 7.36536C34.4206 11.5172 33.0641 15.6691 31.7075 19.9819C29.4025 27.6466 27.3665 35.4722 24.7902 43.1368C23.5704 46.8105 21.1264 50.9624 19.6353 54.9534C17.1935 49.0451 15.023 42.9759 13.1238 36.7481C10.8188 28.9225 8.5115 21.0992 6.0697 13.2736C5.40151 11.0708 4.99342 8.25375 4.0741 5.87866C4.09652 5.90132 4.12119 5.91265 4.13913 5.91945C4.00683 5.64749 3.90593 5.35967 3.84539 5.05825C3.8297 5.01973 3.81624 4.9812 3.80055 4.94267C3.64583 4.69111 3.46421 4.38969 3.41488 4.30357C3.41488 4.30357 3.4104 4.29224 3.40815 4.28771C3.31398 4.17892 3.21532 4.07694 3.12563 3.96136C3.07854 3.89337 3.03594 3.81858 2.98886 3.74832C2.82966 3.58968 2.68615 3.42424 2.55386 3.24974C2.48211 3.17268 2.41708 3.08429 2.3543 2.99818C2.32515 3.01631 2.29376 3.03217 2.26685 3.0503C1.99554 2.73075 1.72423 2.57211 1.31614 2.25256C1.04483 2.09165 0.367672 1.93301 0.230896 2.25256C-0.991127 5.28715 2.80723 12.6323 3.75794 15.6669C5.92844 22.5338 7.96215 29.5593 9.99811 36.5872C12.0341 43.615 14.6104 50.1601 17.3235 56.8684C17.8661 57.9857 18.1375 58.9443 18.6801 59.7421C18.6801 59.903 18.8169 60.0616 18.8169 60.2203C18.5455 64.2135 18.9536 69.4827 18.9536 71.7173C18.6823 79.0624 18.9536 86.4098 19.2249 93.7549C19.3595 97.4286 19.3595 101.1 19.3595 104.932C19.3595 105.571 19.0882 110.362 19.4963 110.841C19.633 111.002 19.7676 111.16 20.0389 111.319C20.0389 111.48 20.3102 111.638 20.447 111.797H20.7183C20.7183 111.958 20.8551 111.958 20.8551 111.958C21.3977 112.117 22.0748 112.277 22.2116 112.117C23.9763 110.041 22.891 102.854 22.7542 100.139C22.7542 94.5504 22.4829 89.1203 22.3461 83.5316C22.2116 77.9428 22.3461 72.3541 22.4829 66.7631C22.6197 64.8458 23.4314 61.0135 23.0255 58.618C23.8395 56.7007 24.3821 54.3075 24.9247 53.0293C27.3665 47.121 29.2657 41.0518 31.0281 34.824C33.0641 27.9571 35.0978 21.0901 37.2683 14.2232C38.0822 11.8277 40.2527 7.99539 40.3872 4.9608C41.2012 4.64125 41.8806 4.16306 42.1519 3.52396C42.4232 3.04577 41.3379 2.24576 41.0666 2.08712L41.0711 2.09618Z" fill="white"/>
<path d="M81.9047 97.1135V68.848C81.9047 56.0728 82.176 43.2976 82.176 30.5225C82.0392 23.9751 81.7679 17.2691 82.4473 10.5608C82.7186 8.16529 82.176 5.45025 84.0752 4.01341C84.0752 3.85477 84.3465 3.69386 84.4833 3.69386C85.8398 2.09611 89.3669 2.73521 91.1315 2.73521C95.4725 2.5743 99.9503 2.41566 104.291 2.25702C109.446 2.25702 114.464 2.25702 119.621 2.09611C121.927 2.09611 124.371 1.13746 126.133 3.05476C126.27 3.2134 126.27 3.53295 126.133 3.69386C124.234 6.08935 118.402 4.65251 115.823 4.81115H105.105C98.865 4.97206 92.7594 5.1307 86.5192 5.45025C86.5192 7.048 85.8398 8.64348 85.8398 10.0803C85.5685 13.754 85.4318 17.5863 85.4318 21.2578C85.4318 27.9638 85.5685 34.6721 85.4318 41.539V44.8931H98.726C100.083 44.8931 101.847 44.5736 103.204 45.2127C104.424 45.8518 104.018 47.2886 103.341 48.0864C103.204 48.4059 102.932 48.7255 102.527 48.7255C102.255 48.8841 101.984 48.8841 101.847 48.7255H87.6045C86.9251 48.7255 86.1111 48.8841 85.434 48.8841C85.2995 53.8337 85.2995 58.9443 85.2995 63.8962C88.9633 63.8962 92.4881 63.8962 96.1519 63.7352C97.9166 63.7352 99.5444 63.4157 101.036 64.0548V63.8939C101.036 64.0548 101.17 64.0548 101.17 64.0548C101.713 64.3744 102.255 64.6939 102.798 65.333C103.746 66.2916 102.798 66.6112 102.119 66.6112C100.083 66.6112 98.0489 66.6112 96.1497 66.7721H85.2972V78.7496C85.2972 87.8511 85.1604 96.7939 85.2972 105.737C85.4317 106.695 85.5685 108.132 85.4318 109.25H85.9744C90.9948 109.25 95.8761 109.25 100.897 109.089C106.457 108.928 112.02 108.61 117.583 108.13C119.754 107.81 122.604 106.693 124.232 108.45C124.503 108.608 124.503 109.247 124.232 109.408C123.146 111.006 122.467 110.845 120.568 111.006C116.227 111.484 111.749 111.965 107.408 112.123C99.4032 112.601 91.4006 112.601 83.3958 112.601C82.9899 112.601 82.7164 112.441 82.5819 112.282L82.1738 111.804C82.037 111.484 82.037 111.326 82.037 111.006C80.8172 107.813 81.9025 99.9872 81.9025 97.1135H81.9047Z" fill="white"/>
<path d="M205.215 22.3774C204.129 23.8142 203.044 23.336 201.282 23.336C197.212 23.4969 193.142 23.6556 188.936 23.6556C187.851 23.8165 186.765 23.8165 185.68 23.8165C185.68 33.8766 185.815 43.9368 185.815 53.997C185.952 68.0504 186.086 81.9428 186.223 95.9962C186.223 99.6699 187.988 110.528 185.543 113.562L185.272 113.882C185.001 114.041 184.593 114.041 184.187 113.882C181.474 112.923 182.83 103.822 182.83 101.905C182.696 87.5316 182.559 73.1609 182.559 58.7879C182.425 47.13 182.288 35.4721 182.288 23.8165C176.727 23.6556 171.029 23.6556 165.601 24.4556H164.922C164.513 24.4556 163.973 24.2969 163.836 24.136L163.294 23.4969C163.294 23.4969 163.157 23.336 163.294 23.1774C164.65 21.2601 167.498 22.0601 169.399 22.0601C173.74 21.9014 177.945 21.7405 182.285 21.5819V18.8669C182.285 15.8323 181.066 8.00895 182.014 3.69616C176.317 3.53752 170.482 3.53752 165.056 4.33526C164.513 4.49617 164.105 4.33526 163.971 4.01571H163.834C163.7 3.85707 163.563 3.69616 163.426 3.53752C163.155 3.21797 163.155 2.89842 163.291 2.57887C164.919 0.502928 167.496 1.30067 169.668 1.30067C174.417 0.981119 179.164 0.981119 183.911 0.822478C189.609 0.663836 195.306 0.502928 201.004 0.344286C202.768 0.344286 203.851 -0.294814 205.073 1.14203C205.345 1.46158 205.345 1.78113 205.073 2.10068C203.851 3.69843 203.037 3.21797 201.004 3.21797C196.934 3.37888 192.864 3.53752 188.658 3.53752C187.709 3.69616 186.759 3.69616 185.808 3.69616C186.759 7.6894 185.674 14.2368 185.674 17.2691V21.5796H185.945C191.779 21.4187 197.474 21.2601 203.172 21.1014C203.986 21.1014 204.529 21.421 205.071 22.0601C205.206 22.0601 205.342 22.221 205.206 22.3796L205.215 22.3774Z" fill="white"/>
<path d="M250.934 4.17221C253.918 4.0113 256.903 4.33085 259.75 4.49176C259.887 5.2895 260.022 6.24815 260.022 7.2068C260.158 13.1151 260.293 19.0233 260.43 25.0925C260.567 31.3385 260.636 37.5844 260.685 43.8281C261.905 40.3335 263.044 36.789 264.004 33.1855C263.959 29.6274 263.905 26.0738 263.822 22.5361C263.822 17.4256 263.551 12.3151 263.414 7.2068V4.65267C264.636 4.81131 265.856 4.81131 267.078 4.81131H267.349C271.013 4.81131 274.675 4.49176 278.473 4.49176C280.372 4.49176 280.509 5.13086 281.866 3.85266C282.274 3.37447 282.137 2.41582 281.729 1.77672C280.372 -0.140581 278.202 0.498519 276.303 0.498519C271.825 0.498519 267.349 0.976711 262.872 0.659427C258.123 0.339877 253.239 0.181235 248.355 0.181235C246.456 0.181235 244.151 -0.616506 242.658 1.13989C242.252 1.61808 242.386 2.57673 242.795 3.05718C244.694 5.29177 248.355 4.17448 250.934 4.17448V4.17221Z" fill="white"/>
<path d="M279.964 110.847C275.352 110.369 270.468 111.008 265.856 110.847C265.177 110.847 264.636 110.847 264.091 110.689C264.905 108.932 264.228 106.217 264.363 104.141C264.363 98.7113 264.363 93.1226 264.499 87.6925C264.499 77.3128 264.363 67.0917 264.228 56.712C264.219 55.9528 264.215 55.1868 264.206 54.4253C263.082 57.5619 261.968 60.6984 260.858 63.8328C260.986 74.4119 261.1 85.1134 260.972 95.6767C260.972 97.7526 259.479 107.015 260.972 110.528C257.851 110.369 254.732 110.208 251.477 110.369C249.808 110.478 247.129 109.769 244.949 109.97C244.678 110.752 244.407 111.536 244.138 112.32C245.656 112.744 247.557 112.447 248.763 112.447C256.631 112.608 264.499 112.767 272.504 112.926C274.809 112.926 280.238 114.362 282 112.128C282.09 112.128 282.09 112.075 282 111.969C281.458 111.33 280.915 111.011 279.964 110.852V110.847Z" fill="white"/>
</g>
<defs>
<clipPath id="clip0_71_1163">
<rect width="282.108" height="114" fill="white"/>
</clipPath>
</defs>
</svg>
