<svg width="175" height="147" viewBox="0 0 175 147" fill="none" xmlns="http://www.w3.org/2000/svg">
<path d="M83.4544 0.0727844C79.0629 0.268707 74.7251 0.814514 70.159 1.76616C48.6714 6.23053 29.7221 18.9099 16.561 37.649C3.6147 56.0803 -2.06608 79.2418 0.673588 102.375C1.74797 111.416 4.35333 120.933 7.91221 128.826C8.98659 131.191 10.3296 133.864 10.4504 133.864C10.4907 133.85 10.8936 133.248 11.3234 132.492C11.7531 131.751 12.5052 130.491 12.9618 129.693C13.7541 128.35 13.9287 127.986 13.7541 127.986C13.7139 127.986 12.8946 128.266 11.9277 128.616C10.9473 128.966 10.1281 129.217 10.1013 129.189C10.0744 129.162 10.1953 128.966 10.3698 128.742C11.0951 127.832 12.6663 125.145 13.5527 123.298C14.4793 121.366 16.6684 116.076 16.5878 115.992C16.5744 115.964 15.8089 116.23 14.8957 116.58C13.9959 116.93 13.217 117.196 13.1901 117.154C13.1498 117.126 13.5796 116.468 14.1436 115.698C15.4731 113.879 16.3729 112.382 17.4473 110.184C17.9308 109.205 18.3471 108.393 18.3874 108.393C18.4277 108.393 18.8574 109.233 19.3275 110.24C20.4153 112.564 21.7583 114.817 22.8864 116.23L23.7459 117.322L22.7118 116.93C22.1477 116.72 21.3554 116.412 20.9525 116.244C20.5496 116.09 20.187 115.978 20.1601 116.006C20.0661 116.104 21.7583 120.205 22.9669 122.78C24.0682 125.145 25.3574 127.426 26.3378 128.714C26.5527 129.008 26.7138 129.245 26.687 129.245C26.6601 129.245 25.8275 128.966 24.8337 128.616C23.7996 128.252 22.9804 128.042 22.9132 128.112C22.8461 128.182 23.5981 129.511 24.6591 131.219C25.6932 132.87 26.7541 134.578 27.0227 135.011C27.2913 135.459 27.5733 135.823 27.627 135.823C27.7748 135.823 29.7758 133.542 30.7696 132.254C32.3274 130.211 33.939 127.384 35.1745 124.487C35.8863 122.836 36.9607 119.729 36.8667 119.631C36.8398 119.603 35.2148 120.023 33.2541 120.569C31.3068 121.1 29.6549 121.548 29.6012 121.548C29.5475 121.548 29.9907 121.002 30.595 120.345C31.9246 118.889 33.8719 116.258 35.1208 114.271C36.4101 112.2 38.9483 107.805 38.8946 107.749C38.8677 107.721 37.7128 108.099 36.3295 108.603C34.9462 109.107 33.751 109.513 33.6838 109.513C33.6167 109.513 33.8181 109.177 34.1405 108.771C35.658 106.826 37.5248 103.537 38.9886 100.22C39.9824 97.9669 42.3192 92.0051 42.2654 91.8652C42.2252 91.7952 40.8553 92.299 38.0217 93.4186L37.2964 93.6985L38.1828 92.7049C40.1033 90.5357 41.5 88.2825 43.5816 83.986L44.8708 81.355L45.5557 82.8665C47.5299 87.1769 49.0743 89.8359 50.941 92.1311C51.5857 92.9148 52.0826 93.5585 52.0557 93.5585C52.0289 93.5585 50.941 93.1527 49.6249 92.6489C48.2954 92.1451 47.1942 91.7532 47.1673 91.7812C47.0733 91.8792 49.9741 98.8206 51.1559 101.326C52.4049 103.971 54.0164 106.77 55.1983 108.365C55.5877 108.883 55.9503 109.373 56.0041 109.457C56.0712 109.527 55.0103 109.205 53.6673 108.729C52.3243 108.239 51.1559 107.847 51.0619 107.833C50.8873 107.833 51.3439 108.715 53.0764 111.752C55.2923 115.642 57.0919 118.218 59.1332 120.415C60.0061 121.352 60.1538 121.562 59.8852 121.506C59.6972 121.478 58.0454 121.03 56.2055 120.513C54.3656 120.009 52.8212 119.617 52.7943 119.659C52.7138 119.743 53.3315 121.688 53.9359 123.228C55.1983 126.433 57.3336 130.239 59.1735 132.534L59.9524 133.514L60.0195 132.814C60.1404 131.583 60.597 130.995 62.8666 129.176C63.9947 128.266 65.1497 127.328 65.4317 127.104C65.7137 126.88 65.9152 126.67 65.8749 126.628C65.848 126.586 65.5257 126.488 65.1766 126.391L64.5319 126.223L66.0763 125.341C66.9224 124.851 67.8491 124.305 68.1445 124.137C69.1652 123.536 69.971 122.458 71.1528 120.079C75.1951 112.004 76.6455 109.611 78.1765 108.477L78.8883 107.959L79.2912 108.869C79.6807 109.737 80.0298 110.073 80.0298 109.541C80.0298 109.233 79.3986 104.517 79.2106 103.439C79.0092 102.263 78.7003 101.718 77.3976 100.22C75.4234 97.9529 74.5371 96.5255 74.0536 94.7761C73.9327 94.3423 73.8119 93.9784 73.785 93.9784C73.7581 93.9784 73.6238 94.3283 73.503 94.7481C73.3687 95.168 73.221 95.5178 73.1807 95.5178C73.0464 95.5178 72.6838 93.6845 72.4958 92.1451C72.3212 90.5916 72.4152 88.3804 72.7241 87.2049C73.0061 86.0713 73.4224 85.2456 74.6445 83.3423C75.222 82.4606 76.1889 80.8512 76.8201 79.7876L77.9348 77.8423L78.1765 78.668C78.3108 79.1158 78.4585 79.7036 78.4988 79.9415C78.6063 80.5013 78.7943 80.5433 78.9017 80.0115C79.2643 78.2761 79.9358 76.8767 81.4399 74.7354C83.4276 71.9085 86.3015 67.3042 86.1672 67.1642C86.1001 67.0802 81.2654 72.2863 80.4462 73.336C79.8955 74.0357 79.3852 75.2393 79.0763 76.5408C78.8883 77.3105 78.7943 77.1985 78.6331 76.023C78.5794 75.6591 78.4854 75.3652 78.4317 75.3652C78.3377 75.3652 75.8666 79.6756 73.7179 83.6222C71.6228 87.4568 69.5815 91.7952 68.9369 93.7965C68.4803 95.1959 68.0774 97.4071 68.0774 98.4568C68.0774 99.2964 67.6342 100.836 67.3925 100.836C67.3253 100.836 67.2313 100.668 67.191 100.444C67.1373 100.234 67.0701 100.01 67.0433 99.9542C67.003 99.8842 66.3315 100.486 65.5526 101.284C64.2902 102.557 63.0278 103.635 62.7726 103.635C62.7323 103.635 62.8264 103.383 62.9741 103.075C63.1218 102.781 63.2427 102.487 63.2427 102.459C63.2427 102.417 62.9069 102.529 62.4906 102.725C59.1332 104.279 56.9173 103.873 55.4534 101.438C54.4865 99.8562 53.7076 97.4491 53.3047 94.7901C53.1704 93.9224 53.1704 93.6565 53.3047 93.4886C53.7479 92.9428 54.3119 93.4746 55.0237 95.14C55.252 95.6578 55.4937 96.0776 55.5743 96.0776C55.6549 96.0776 56.6487 95.5878 57.7902 95C60.1807 93.7545 60.3016 93.5585 58.6766 93.5585H57.6156L58.1528 92.369C58.4348 91.7112 58.9855 90.6056 59.3481 89.9199C60.2344 88.2965 60.5164 87.4288 60.691 85.7354C60.973 83.1044 61.8057 80.6413 62.9741 79.0039C63.283 78.584 63.4575 78.2202 63.3904 78.1922C63.3232 78.1642 62.8532 78.2761 62.3563 78.4301C61.846 78.584 61.4297 78.696 61.4162 78.682C61.3222 78.584 61.658 77.1006 61.8863 76.5688C62.5443 75.0153 65.19 71.7685 70.1053 66.4645C71.4751 65.009 72.8852 63.3996 73.2478 62.9098C73.9462 61.9581 75.0608 60.0128 75.0608 59.7469C75.0608 59.649 74.6714 59.8029 74.1879 60.0688C73.7044 60.3347 73.315 60.5166 73.315 60.4747C73.315 60.1528 74.4565 56.878 74.8594 56.0523C76.1486 53.3653 77.9885 51.49 80.5267 50.2864C80.9968 50.0765 81.3728 49.8665 81.3728 49.8386C81.3728 49.7966 80.6879 49.5447 79.8687 49.2648C79.036 48.9709 78.2974 48.691 78.2302 48.621C78.0825 48.4811 78.1765 48.4531 87.6579 45.878C89.5918 45.3602 91.1765 44.8984 91.1765 44.8564C91.1765 44.8144 90.8676 44.6744 90.4916 44.5345L89.8067 44.2686L90.1155 43.9047C90.599 43.3449 93.7013 39.8322 94.3728 39.1045L94.9637 38.4467L94.6951 38.1668C94.4668 37.9289 94.4265 37.761 94.4802 37.1312C94.5205 36.7114 94.4265 35.4938 94.2788 34.3602C93.943 31.9251 93.9296 31.1554 94.2116 30.4697L94.4265 29.9518L94.5742 30.3017C95.1383 31.7292 95.3666 32.149 95.8098 32.6668C96.6961 33.6745 98.0122 33.7305 99.2478 32.7928C99.5566 32.5549 100.013 32.275 100.268 32.177C100.577 32.0371 100.712 31.8971 100.685 31.7292C100.671 31.6032 100.738 31.2814 100.832 31.0154C101.02 30.5676 101.047 30.5536 101.571 30.6376C102.551 30.8055 103.908 31.3793 104.754 31.9811L105.587 32.5689L106.03 32.0651C106.272 31.7852 106.554 31.5612 106.661 31.5612C106.93 31.5612 107.816 32.261 108.461 33.0027C109.051 33.6745 109.535 34.5562 109.992 35.8297C110.139 36.2635 110.596 37.0752 110.999 37.621C111.402 38.1808 111.724 38.7546 111.724 38.9086C111.724 39.0625 111.415 39.7203 111.039 40.364C110.676 41.0078 110.341 41.7075 110.3 41.9035C110.26 42.0994 110.354 43.4289 110.502 44.8564C110.65 46.2839 110.797 48.0192 110.851 48.733C110.918 49.9785 110.918 50.0205 110.582 50.2864C110.394 50.4403 109.347 50.9302 108.259 51.364C106.272 52.1757 105.64 52.5116 106.419 52.3716C106.648 52.3296 107.198 52.2457 107.655 52.2037L108.487 52.1057L108.568 52.7915C108.608 53.1553 108.675 53.6592 108.716 53.9111C108.743 54.149 109.145 55.1286 109.602 56.0803C110.69 58.3754 111.026 59.3411 111.133 60.4747C111.227 61.3703 111.214 61.4123 110.972 61.3144C110.515 61.1324 110.475 61.1604 110.354 61.7202C110.166 62.5179 110.327 64.883 110.636 66.1426C111.187 68.3678 112.409 70.0891 113.967 70.8589C114.705 71.2227 114.853 71.2367 116.733 71.2367C117.821 71.2367 118.707 71.2927 118.707 71.3487C118.707 71.4047 118.519 71.8245 118.305 72.2863C118.009 72.8881 117.74 73.238 117.324 73.5039C117.015 73.7138 116.733 73.8957 116.706 73.9237C116.599 73.9937 117.808 78.654 118.385 80.4593C119.151 82.7685 120.507 85.6794 121.353 86.771C121.716 87.2329 122.293 87.8206 122.656 88.0586L123.3 88.5204L122.951 88.6603C122.75 88.7303 122.441 88.8423 122.266 88.8843C121.877 88.9822 121.85 89.1082 122.159 89.3741C122.562 89.724 128.028 96.8333 128.269 97.3372C128.404 97.6031 128.511 98.0509 128.511 98.3308C128.511 98.9466 127.088 105.314 126.913 105.496C126.846 105.566 126.631 105.356 126.403 105.006C125.691 103.915 125.624 103.593 125.664 101.494C125.691 99.5624 125.597 99.0165 125.234 99.0165C125.046 99.0165 124.993 99.2964 124.603 101.858C124.455 102.865 124.428 102.935 124.16 102.851C123.408 102.613 122.871 101.69 122.871 100.598C122.871 99.9402 122.844 99.8982 121.837 98.8766L120.789 97.827L120.722 98.6387L120.655 99.4364L118.842 97.5611L117.042 95.6718L116.532 96.6654C116.263 97.2112 115.981 97.715 115.901 97.799C115.82 97.883 115.565 97.4771 115.202 96.7074C114.692 95.6018 114.437 95.2799 112.543 93.2926C111.388 92.0891 110.086 90.5776 109.642 89.9339C108.729 88.6324 108.837 88.6184 108.031 90.1158L107.588 90.9415L107.252 89.7659C107.064 89.1222 106.661 87.7087 106.366 86.6311C106.057 85.5535 105.775 84.5598 105.734 84.4199C105.654 84.168 105.587 84.154 107.279 84.8537C107.426 84.9097 107.44 84.7978 107.359 84.3079C107.104 82.7125 106.231 81.5649 104.687 80.8092L103.841 80.3894L104.163 79.0319C104.539 77.3805 104.915 75.0853 104.808 74.9734C104.673 74.8194 104.499 75.1693 103.559 77.6044C101.961 81.7329 101.343 84.098 101.061 87.1489L100.913 88.7863L99.9193 87.5407C99.3821 86.841 98.8717 86.2812 98.8046 86.2812C98.7374 86.2812 98.724 86.3512 98.7777 86.4492C98.912 86.6731 101.356 90.1578 103.881 93.7265C106.11 96.8613 106.043 96.6794 105.023 96.8054C104.754 96.8473 105.023 97.1412 106.768 98.7926C109.629 101.494 112.288 104.307 113.483 105.874C114.034 106.602 114.531 107.274 114.585 107.371C114.652 107.483 114.343 107.749 113.712 108.127C112.301 108.967 112.355 108.911 112.731 109.429C114.114 111.318 114.759 115.81 115.014 125.397L115.095 128.336L114.356 127.496C113.953 127.034 113.618 126.712 113.604 126.796C113.604 126.866 113.51 127.748 113.389 128.756C113.268 129.749 113.161 131.611 113.161 132.884C113.148 134.815 113.201 135.403 113.443 136.425C113.604 137.111 113.738 137.684 113.738 137.726C113.738 137.754 113.591 137.782 113.403 137.782C113.148 137.782 113.067 137.852 113.067 138.09C113.08 139.126 114.302 140.651 116.29 142.121C116.988 142.639 118.264 143.646 119.11 144.36C120.87 145.829 121.111 145.969 121.568 145.843C122.239 145.675 124.697 141.785 126.094 138.692C127.235 136.201 128.39 132.996 128.229 132.828C128.162 132.758 127.329 132.982 122.938 134.2C121.984 134.466 121.179 134.675 121.165 134.661C121.152 134.647 121.608 134.102 122.159 133.444C123.408 131.988 125.087 129.665 126.295 127.706C127.101 126.405 130.123 121.044 130.123 120.919C130.123 120.891 128.995 121.268 127.625 121.772C126.242 122.262 125.1 122.654 125.073 122.626C125.046 122.612 125.463 121.996 125.973 121.268C127.383 119.309 128.283 117.728 129.72 114.761C130.955 112.214 133.964 105.062 133.843 104.95C133.816 104.922 132.621 105.342 131.197 105.874C129.774 106.42 128.578 106.84 128.538 106.798C128.511 106.756 128.565 106.686 128.686 106.63C128.927 106.532 130.754 104.363 131.6 103.145C132.567 101.788 133.964 99.2405 135.119 96.7774L136.193 94.4822L137.697 97.5471C139.698 101.662 140.907 103.593 142.868 105.762C143.405 106.364 143.821 106.854 143.781 106.854C143.74 106.854 142.572 106.406 141.189 105.874C139.792 105.328 138.624 104.908 138.57 104.922C138.463 104.978 141.283 111.808 142.424 114.271C143.552 116.706 145.03 119.281 146.373 121.17C146.964 121.996 147.393 122.668 147.313 122.668C147.246 122.668 146.091 122.262 144.748 121.758C143.391 121.268 142.263 120.891 142.236 120.919C141.981 121.17 146.937 129.245 148.387 130.925L148.924 131.555L149.341 131.065C150.697 129.455 153.329 124.627 154.807 120.989C155.357 119.631 155.733 118.371 155.612 118.246C155.572 118.218 154.807 118.469 153.907 118.819C153.007 119.169 152.241 119.449 152.201 119.449C152.161 119.449 152.443 119.085 152.819 118.637C153.96 117.308 155.102 115.461 156.391 112.829L157.613 110.338L158.057 111.36C159.292 114.201 161.011 117.112 162.354 118.651C162.73 119.085 163.026 119.449 162.985 119.449C162.945 119.449 162.166 119.169 161.266 118.819C160.366 118.469 159.574 118.19 159.507 118.19C159.453 118.19 159.574 118.679 159.789 119.281C161.186 123.27 164.18 129.315 165.295 130.421L165.698 130.813L166.114 129.861C167.592 126.53 168.035 125.453 168.706 123.648C171.835 115.153 173.568 107.05 174.32 97.4771C174.535 94.8041 174.535 87.3448 174.32 84.6018C173.138 68.8716 168.693 54.8767 160.85 42.0714C156.458 34.892 150.751 28.0485 144.291 22.1847C132.204 11.2407 117.257 3.90738 101.517 1.20638C95.85 0.22673 89.3366 -0.179123 83.4544 0.0727844Z" fill="#F4A31E"/>
<path d="M82.7158 103.425C82.7158 103.467 83.4544 104.601 84.3542 105.958C85.6569 107.903 86.0195 108.365 86.1001 108.155C86.7178 106.616 86.7581 106.546 86.9193 106.686C87.2684 106.98 92.3852 111.024 93.4864 111.892C94.131 112.396 94.6548 112.858 94.6682 112.928C94.6816 113.208 92.694 117.014 92.3314 117.406C92.1031 117.644 91.0422 118.666 89.9678 119.673C87.631 121.87 83.0784 126.685 81.4265 128.7C79.9761 130.463 79.2643 131.429 78.1497 133.15L77.3036 134.466L76.9947 133.388C76.8335 132.786 76.6724 132.269 76.6321 132.241C76.5381 132.143 74.4565 133.248 73.5835 133.864C72.6569 134.522 71.7437 135.543 71.6228 136.061C71.3811 137.041 72.3346 140.931 73.2209 142.597C73.7581 143.604 74.1879 143.87 75.8263 144.206C76.9141 144.43 77.0081 144.472 77.0484 144.794C77.0753 145.088 77.2096 145.2 77.7871 145.382C81.1579 146.487 83.4813 146.823 84.8645 146.389C86.5432 145.886 94.0236 144.052 95.2726 143.842C96.5752 143.632 99.5163 143.66 100.47 143.884C100.819 143.968 100.832 143.94 101.168 142.807C101.826 140.512 102.283 137.377 102.122 136.257L102.028 135.613L101.464 136.285L100.9 136.971L100.738 135.319C100.51 133.15 100.255 131.863 99.6775 130.155C98.7777 127.454 98.6703 126.936 98.6031 124.697C98.5225 122.29 98.6837 120.135 99.194 116.594C99.4492 114.817 99.5163 114.033 99.4089 113.865C99.3418 113.739 98.4017 113.152 97.3407 112.55C94.9234 111.178 93.8221 110.409 89.6858 107.19C87.8593 105.776 86.3149 104.615 86.2343 104.615C86.1403 104.615 85.9658 104.825 85.8449 105.09L85.6032 105.566L84.2602 104.461C83.0112 103.439 82.7158 103.243 82.7158 103.425Z" fill="#F4A31E"/>
<path d="M151.006 130.813C149.972 131.191 149.072 131.555 149.005 131.625C148.871 131.765 150.778 134.032 150.952 133.934C151.033 133.878 152.483 131.373 153.047 130.337C153.181 130.085 152.725 130.183 151.006 130.813Z" fill="#F4A31E"/>
<path d="M162.085 130.211C162.085 130.351 163.872 133.486 164.113 133.78C164.167 133.85 164.489 133.318 164.839 132.604C165.174 131.891 165.443 131.303 165.416 131.289C165.389 131.261 164.745 131.023 163.966 130.743C163.187 130.477 162.448 130.197 162.327 130.155C162.179 130.099 162.085 130.113 162.085 130.211Z" fill="#F4A31E"/>
<path d="M144.09 132.954C144.09 133.08 144.251 133.57 144.439 134.046C144.64 134.522 145.178 135.921 145.661 137.153C146.453 139.182 146.816 139.91 146.95 139.728C147.662 138.846 150.643 134.564 150.563 134.522C150.469 134.452 144.278 132.745 144.157 132.745C144.117 132.745 144.09 132.842 144.09 132.954Z" fill="#F4A31E"/>
<path d="M27.9225 136.075C27.9225 136.145 28.3523 136.677 28.8894 137.279C29.4401 137.909 29.749 138.342 29.6012 138.3C28.7686 138.034 24.6725 136.943 24.4845 136.943C24.1756 136.943 24.2562 137.195 25.3843 139.98C25.9886 141.477 26.4318 142.401 26.5392 142.401C26.8616 142.401 29.6684 141.211 31.0113 140.512C31.7097 140.148 32.7169 139.546 33.2541 139.168C34.2748 138.44 36.3832 136.397 36.3832 136.131C36.3832 136.005 35.282 135.963 32.1529 135.963C29.8295 135.963 27.9225 136.019 27.9225 136.075Z" fill="#F4A31E"/>
<path d="M149.461 139.56C148.239 139.91 147.219 140.218 147.178 140.246C147.084 140.358 147.85 141.813 148.401 142.583C148.938 143.325 149.73 143.997 149.878 143.843C150.012 143.675 151.785 139.042 151.731 138.986C151.704 138.958 150.684 139.224 149.461 139.56Z" fill="#F4A31E"/>
<path d="M102.028 142.695C101.383 143.423 101.061 143.898 101.155 143.954C101.356 144.066 103.035 144.374 103.089 144.304C103.116 144.276 103.116 143.632 103.102 142.891L103.062 141.519L102.028 142.695Z" fill="#F4A31E"/>
</svg>
