<svg width="47" height="112" viewBox="0 0 47 112" fill="none" xmlns="http://www.w3.org/2000/svg">
<path d="M46.5884 66.4574L46.4278 66.3467C40.0426 62.035 30.6507 55.7006 27.6187 48.0783C31.1627 49.6984 35.4696 51.2329 39.887 51.2329C41.0667 51.2329 42.2363 51.1222 43.3506 50.9059C43.692 50.8355 43.9731 50.5839 44.0735 50.2468C44.1638 49.9097 44.0685 49.5475 43.8024 49.306C42.9842 48.5563 41.9552 47.6608 40.8659 46.7099C35.8812 42.388 28.5976 36.0638 27.2121 30.8615C27.6237 31.0628 28.0404 31.269 28.4671 31.4753C32.4979 33.4677 37.0609 35.7217 41.3126 35.7217C41.6791 35.7217 42.0455 35.7066 42.4019 35.6714C42.7382 35.6361 43.0344 35.4248 43.1649 35.1079C43.2954 34.7909 43.2502 34.4286 43.0394 34.167C35.4445 24.6429 27.1167 13.4183 24.3358 0.729527C24.2505 0.327029 23.9041 0.0301873 23.4975 0C23.0909 0.0301873 22.7496 0.327029 22.6592 0.729527C19.8783 13.4183 11.5555 24.6429 3.96059 34.1721C3.74976 34.4337 3.70459 34.7959 3.8351 35.1129C3.96561 35.4299 4.25676 35.6412 4.5981 35.6764C4.95451 35.7116 5.32095 35.7267 5.68739 35.7267C9.93913 35.7267 14.5021 33.4727 18.533 31.4803C18.9546 31.2741 19.3763 31.0678 19.7879 30.8665C18.4024 36.0688 11.1188 42.3931 6.13415 46.7149C5.04486 47.6608 4.01581 48.5563 3.19759 49.311C2.93656 49.5525 2.83617 49.9147 2.92652 50.2518C3.0219 50.5889 3.30301 50.8455 3.64937 50.9109C4.76376 51.1273 5.93336 51.238 7.113 51.238C11.5304 51.238 15.8373 49.6984 19.3813 48.0834C16.3494 55.7057 6.95739 62.045 0.572257 66.3517L0.411625 66.4624C0.110439 66.6637 -0.0451733 67.031 0.0150638 67.3882C0.0702812 67.7504 0.341348 68.0422 0.692731 68.1328C1.67158 68.3894 2.77593 68.5252 3.97063 68.5252C8.45328 68.5252 13.6989 66.714 17.8804 64.8575C19.7327 64.0374 20.566 77.9085 20.566 81.697C20.566 84.0717 20.6011 86.4817 20.6312 88.8161C20.6664 91.1406 20.7015 93.5455 20.7015 95.9051C20.7015 99.9704 21.1031 105.429 20.4405 110.893C20.4103 111.15 20.4856 111.411 20.6563 111.613C20.827 111.809 21.0679 111.93 21.334 111.935L23.5126 112.01L25.6911 111.935C25.9522 111.93 26.1931 111.809 26.3688 111.613C26.5395 111.411 26.6148 111.155 26.5846 110.893C25.9271 105.429 26.3136 100.675 26.3136 96.6095C26.3136 94.2499 26.3537 91.3418 26.3889 89.0174C26.419 86.6879 26.4993 83.151 26.4993 80.7712C26.4993 76.8771 27.1418 63.9569 28.8586 64.7267C33.0852 66.6234 38.4664 68.5202 43.0545 68.5202C44.2442 68.5202 45.3485 68.3894 46.3324 68.1278C46.6838 68.0372 46.9498 67.7454 47.01 67.3831C47.0753 67.0259 46.9197 66.6586 46.6135 66.4574H46.5884Z" fill="#F1A21F"/>
</svg>
